<?xml version="1.0" encoding="utf-8"?>
<!-- Generator: Adobe Illustrator 19.0.0, SVG Export Plug-In . SVG Version: 6.00 Build 0)  -->
<svg version="1.1" id="Layer_1" xmlns="http://www.w3.org/2000/svg" xmlns:xlink="http://www.w3.org/1999/xlink" x="0px" y="0px"
	 viewBox="-1142 555.3 550 550" style="enable-background:new -1142 555.3 550 550;" xml:space="preserve">
<style type="text/css">
	.st0{fill:#004777;}
	.st1{fill:#ffffff;}
</style>
<circle id="XMLID_2_" class="st0" cx="-867" cy="830.3" r="275"/>
<g>
	<path id="XMLID_1_" class="st1" d="M-816.8,608.6c-13.7,35.1,3.5,74.7,38.6,88.4c27.8,10.9,59.5,2.4,78.1-20.9
		c23,24.8,40.1,54.6,50.2,86.8c-37.3,5.6-62.8,40.4-57.2,77.7c4.5,29.6,27.6,52.7,57.2,57.2c-10,32.4-27.2,62-50.2,86.8
		c-23.6-29.5-66.5-34.2-95.9-10.7c-23.4,18.6-31.8,50.3-20.9,78.1c-33,7.5-67.3,7.5-100.3,0c13.7-35.1-3.5-74.7-38.6-88.4
		c-27.8-10.9-59.5-2.4-78.1,20.9c-23-24.8-40.1-54.6-50.2-86.8c37.3-5.6,62.8-40.4,57.2-77.7c-4.5-29.6-27.6-52.7-57.2-57.2
		c10-32.4,27.2-62,50.2-86.8c23.6,29.5,66.5,34.2,95.9,10.7c23.4-18.6,31.8-50.3,20.9-78.1C-884.1,601-849.9,601-816.8,608.6z
		 M-1003.5,830.3c0,75.3,61.1,136.4,136.4,136.4s136.4-61.1,136.4-136.4S-791.7,693.9-867,693.9S-1003.5,755-1003.5,830.3
		L-1003.5,830.3z"/>
	<g id="LINE_3_">
		<polyline id="XMLID_6_" class="st1" points="-878.4,716.6 -878.4,807.6 -855.6,807.6 -855.6,716.6 		"/>
	</g>
	<g id="LINE_5_">
		<path id="XMLID_3_" class="st1" d="M-901.1,771.2c-32.6,18.8-43.8,60.6-25,93.2c18.8,32.6,60.6,43.8,93.2,25
			c32.6-18.8,43.8-60.6,25-93.2c-6-10.4-14.6-19-25-25v-25.3c22.8,9.3,40.9,27.4,50.2,50.2c18.8,46.6-3.6,99.6-50.2,118.4
			c-46.6,18.8-99.6-3.6-118.4-50.2s3.6-99.6,50.2-118.4V771.2z"/>
	</g>
</g>
</svg>
