<?xml version="1.0" encoding="utf-8"?>
<svg version="1.1" id="Layer_1" xmlns="http://www.w3.org/2000/svg" xmlns:xlink="http://www.w3.org/1999/xlink" x="0px" y="0px"
	 viewBox="0 0 500 500" style="enable-background:new 0 0 500 500;" xml:space="preserve">
<style type="text/css">
	.st0{fill:#FBFBFF;}
</style>
<path id="XMLID_1_" class="st0" d="M305.2,6.2c-15.1,38.6,3.9,82.1,42.5,97.2c30.6,12,65.4,2.6,85.9-23c25.3,27.3,44.1,60,55.2,95.5
	c-41,6.2-69.1,44.4-62.9,85.4c4.9,32.5,30.4,58,62.9,62.9c-11,35.6-29.9,68.2-55.2,95.5c-25.9-32.4-73.1-37.6-105.4-11.8
	c-25.7,20.5-35,55.3-23,85.9c-36.3,8.2-74,8.2-110.3,0c15.1-38.6-3.9-82.1-42.5-97.2c-30.6-12-65.4-2.6-85.9,23
	c-25.3-27.3-44.1-60-55.2-95.5c41-6.2,69.1-44.4,62.9-85.4c-4.9-32.5-30.4-58-62.9-62.9c11-35.6,29.9-68.2,55.2-95.5
	c25.9,32.4,73.1,37.6,105.4,11.8c25.7-20.5,35-55.3,23-85.9C231.2-2.1,268.8-2.1,305.2,6.2z M100,250c0,82.8,67.2,150,150,150
	s150-67.2,150-150s-67.2-150-150-150S100,167.2,100,250L100,250z"/>
<g id="LINE_3_">
	<polyline id="XMLID_6_" class="st0" points="237.5,125 237.5,225 262.5,225 262.5,125 	"/>
</g>
<g id="LINE_5_">
	<path id="XMLID_2_" class="st0" d="M212.5,185c-35.9,20.7-48.2,66.6-27.5,102.5s66.6,48.2,102.5,27.5
		c35.9-20.7,48.2-66.6,27.5-102.5c-6.6-11.4-16.1-20.9-27.5-27.5v-27.8c25.1,10.2,45,30.1,55.2,55.2c20.7,51.2-4,109.5-55.2,130.2
		c-51.2,20.7-109.5-4-130.2-55.2s4-109.5,55.2-130.2V185z"/>
</g>
</svg>
